<svg xmlns="http://www.w3.org/2000/svg" id="Layer_1" data-name="Layer 1" viewBox="0 0 263.45 271.81"><defs><style>.cls-1,.cls-3,.cls-4{fill:none}.cls-1,.cls-3{stroke:#c7ced8}.cls-1,.cls-3,.cls-4,.cls-9{stroke-linecap:round}.cls-1,.cls-4,.cls-9{stroke-linejoin:round}.cls-1,.cls-3,.cls-4,.cls-8,.cls-9{stroke-width:1.3px}.cls-2{fill:#c7ced8}.cls-3,.cls-8{stroke-miterlimit:10}.cls-4,.cls-8,.cls-9{stroke:#474e59}.cls-5,.cls-8,.cls-9{fill:#fff}</style></defs><path d="M30.56 208.53h201.16m5.9 0h7.01m-217.94 0h-7.87m17.95-.06v-16.06m0 5.82l3.29-3.28" class="cls-1"/><circle cx="36.77" cy="193.35" r="7.22" class="cls-1"/><path d="M78.98 243.66h48.04m.54 0a3.36 3.36 0 0 1 6.72 0h11.78m3.13 0h3.16m3.74 0h17.75m-1.14-17.01h-2.77m6.24 0h20.78M46.38 145.32h9.6m-27.73 5.33h20.67m161.48-27.43h10.37m.73 0a4.05 4.05 0 0 1 4.05-4.05m8.11-.01a4.05 4.05 0 0 1 4.05 4.05m-12.16-4.33a4.05 4.05 0 1 1 8.11 0m4.06 4.34h4.87" class="cls-1"/><path d="M200.15 83.3a4.89 4.89 0 0 1 .65 2.54 6 6 0 0 1-.14 1.27 3.84 3.84 0 0 1-.51 1.27 3.84 3.84 0 0 1-.51-1.27 6 6 0 0 1-.14-1.27 4.89 4.89 0 0 1 .65-2.54z" class="cls-2"/><path d="M202.69 85.84a4.89 4.89 0 0 1-2.54.65 5.93 5.93 0 0 1-1.27-.14 3.84 3.84 0 0 1-1.27-.51 3.84 3.84 0 0 1 1.27-.51 6 6 0 0 1 1.27-.14 4.88 4.88 0 0 1 2.54.65zM141.5 45.56a4.88 4.88 0 0 1 .65 2.53 6 6 0 0 1-.14 1.27 3.84 3.84 0 0 1-.51 1.27 3.84 3.84 0 0 1-.51-1.27 6 6 0 0 1-.14-1.27 4.88 4.88 0 0 1 .65-2.53z" class="cls-2"/><path d="M144 48.09a4.88 4.88 0 0 1-2.54.65 6 6 0 0 1-1.27-.14 3.84 3.84 0 0 1-1.27-.51 3.84 3.84 0 0 1 1.27-.51 6 6 0 0 1 1.27-.14 4.89 4.89 0 0 1 2.54.65zm-9.77 43.37a4.88 4.88 0 0 1 .65 2.53 6 6 0 0 1-.14 1.27 3.84 3.84 0 0 1-.51 1.27 3.84 3.84 0 0 1-.51-1.27 6 6 0 0 1-.14-1.27 4.88 4.88 0 0 1 .65-2.53z" class="cls-2"/><path d="M136.77 94a4.89 4.89 0 0 1-2.54.65 6 6 0 0 1-1.23-.15 3.84 3.84 0 0 1-1.3-.5 3.85 3.85 0 0 1 1.27-.51 6 6 0 0 1 1.27-.14 4.89 4.89 0 0 1 2.53.65zM66.51 31.79a4.88 4.88 0 0 1 .65 2.53 6 6 0 0 1-.16 1.27 3.84 3.84 0 0 1-.51 1.27 3.84 3.84 0 0 1-.49-1.27 6 6 0 0 1-.14-1.27 4.88 4.88 0 0 1 .65-2.53z" class="cls-2"/><path d="M69 34.32a4.88 4.88 0 0 1-2.54.65 6 6 0 0 1-1.27-.14 3.84 3.84 0 0 1-1.19-.51 3.84 3.84 0 0 1 1.27-.51 6 6 0 0 1 1.27-.14 4.89 4.89 0 0 1 2.46.65zM53.72 75.95a4.89 4.89 0 0 1 .65 2.54 6 6 0 0 1-.14 1.27 3.84 3.84 0 0 1-.51 1.24 3.84 3.84 0 0 1-.51-1.27 6 6 0 0 1-.14-1.27 4.89 4.89 0 0 1 .65-2.51z" class="cls-2"/><path d="M56.26 78.48a4.89 4.89 0 0 1-2.54.65 6 6 0 0 1-1.26-.13 3.84 3.84 0 0 1-1.27-.51 3.84 3.84 0 0 1 1.27-.49 6 6 0 0 1 1.27-.14 4.89 4.89 0 0 1 2.53.62z" class="cls-2"/><circle cx="192.59" cy="113.4" r="1.74" class="cls-3"/><circle cx="127.56" cy="67.96" r="1.74" class="cls-3"/><circle cx="61.23" cy="57.26" r="1.74" class="cls-3"/><path d="M70.62 189.78V171.7h63.32" class="cls-4"/><circle cx="98.95" cy="197.3" r="10.62" class="cls-4"/><circle cx="171.01" cy="197.3" r="10.62" class="cls-4"/><path d="M134.23 146.65h31.86m-24.76 8.06v16.99h19.58l-5.47-16.99h-14.11z" class="cls-4"/><circle cx="171.01" cy="197.3" r="3.5" class="cls-4"/><circle cx="98.95" cy="197.3" r="3.5" class="cls-4"/><path d="M185.94 195.07l6.65.07v-20.83l-23.61-3.03-8.07-24.63m-26.68.04v48.38h21.85" class="cls-4"/><path d="M65.64 136.39h68.59v35.31H65.64zm1.61 53.39h7.22v5.28h-7.22zm89.12 6.65a14.64 14.64 0 0 1 29.27 0m-101.33 0q0-.69.06-1.36a14.64 14.64 0 0 1 29.14-.13 14.81 14.81 0 0 1 .08 1.5m-29.22-1.37h-9.9m59.76 0h-20.71" class="cls-4"/><path d="M85.61 103.11v-9.6m5.34 19.06v-12m68.3 16.86v-9.59m5.34 19.06v-12.01" class="cls-1"/><circle cx="183.47" cy="57.26" r="11.85" class="cls-5"/><circle cx="111.86" cy="40.68" r="11.85" class="cls-5"/><path d="M72.14 40.35h39.81v39.81H72.14z" fill="#3b5998"/><path d="M145.63 56.26h39.81v39.81h-39.81z" fill="#0077b5"/><circle cx="111.86" cy="40.35" r="12.19" class="cls-5"/><circle cx="185.66" cy="56.45" r="12.19" class="cls-5"/><path d="M161.1 83.32h-3v-9.46h3zm-1.55-11a1.65 1.65 0 1 1 1.82-1.64 1.64 1.64 0 0 1-1.85 1.61zm13.76 11H170v-4.9c0-1.28-.52-2.15-1.67-2.15a1.69 1.69 0 0 0-1.6 1.16 2.14 2.14 0 0 0-.07.77v5.12h-3.32v-9.85h3.32V75c.39-.62 1.26-1.18 2.95-1.18 2.1 0 3.75 1.36 3.75 4.29z" class="cls-5"/><circle cx="111.86" cy="40.24" r="10.25" class="cls-8"/><circle cx="111.86" cy="40.24" r="10.25" class="cls-8"/><path d="M107.58 39.82l3.37 3.38 5.9-5.91" class="cls-9"/><circle cx="185.63" cy="56.39" r="10.25" class="cls-8"/><circle cx="185.63" cy="56.39" r="10.25" class="cls-8"/><path d="M181.34 55.97l3.37 3.37 5.91-5.9" class="cls-9"/><path d="M213.34 148.54l-5.69 5.69-3-2.99-4.5 4.49" class="cls-3"/><path d="M209.75 148.54h3.59v3.59m-97.79-48.54l2.06 4.16 4.59.67-3.32 3.23.78 4.57-4.11-2.15-4.1 2.15.78-4.57-3.32-3.23 4.59-.67 2.05-4.16z" class="cls-3"/><circle cx="223.74" cy="76.72" r="5.87" class="cls-3"/><path d="M223.74 73.2v3.52l1.76 1.76M62.1 106.84v.6a6.44 6.44 0 1 1-3.82-5.89" class="cls-3"/><path d="M62.74 101.64l-7.08 7.09-1.94-1.93" class="cls-3"/><path d="M140.01 179.5h6.05" class="cls-9"/><path d="M90.2 152.46l-7.91 7.84m13.69-8.44l-7.91 7.84m135.72 48.66v-29.03m0 13.3l5.06-5.06m-5.06-1.82l-3.37-3.36m12.58-4.77a11.09 11.09 0 1 1-18.44.06m-.01.01a9.43 9.43 0 1 1 18.49-.06" class="cls-1"/><path d="M96.8 51.6h-2.6a4.33 4.33 0 0 0-4.33 4.33v2.6h-2.6V62h2.6v6.9h3.46V62h2.6l.87-3.46h-3.46v-2.6a.87.87 0 0 1 .87-.87h2.6z" class="cls-5"/></svg>